{
  "accessors": [
    {
      "name": "mesh_all1_Texture1_0-Mesh_0_positions",
      "componentType": 5126,
      "count": 4730,
      "min": [
        -0.5853449702262878,
        -0.7210429906845093,
        -0.10764700174331665
      ],
      "max": [
        0.7419049739837646,
        0.7395349740982056,
        0.9248819947242737
      ],
      "type": "VEC3",
      "bufferView": 0,
      "byteOffset": 0
    },
    {
      "name": "mesh_all1_Texture1_0-Mesh_0_normals",
      "componentType": 5126,
      "count": 4730,
      "min": [
        -1,
        -1,
        -1
      ],
      "max": [
        1,
        1,
        1
      ],
      "type": "VEC3",
      "bufferView": 1,
      "byteOffset": 0
    },
    {
      "name": "mesh_all1_Texture1_0-Mesh_0_texcoords",
      "componentType": 5126,
      "count": 4730,
      "min": [
        0.008767000399529934,
        0.0004959999932907522
      ],
      "max": [
        0.9982579946517944,
        0.9986510276794434
      ],
      "type": "VEC2",
      "bufferView": 2,
      "byteOffset": 0
    },
    {
      "name": "mesh_all1_Texture1_0-Mesh_0_indices",
      "componentType": 5123,
      "count": 11484,
      "min": [
        0
      ],
      "max": [
        4729
      ],
      "type": "SCALAR",
      "bufferView": 3,
      "byteOffset": 0
    }
  ],
  "asset": {
    "generator": "obj2gltf",
    "version": "2.0"
  },
  "buffers": [
    {
      "name": "viking_room",
      "byteLength": 174328,
      "uri": "data:application/octet-stream;base64,"
    }
  ],
  "bufferViews": [
    {
      "name": "bufferView_0",
      "buffer": 0,
      "byteLength": 56760,
      "byteOffset": 0,
      "byteStride": 12,
      "target": 34962
    },
    {
      "name": "bufferView_1",
      "buffer": 0,
      "byteLength": 56760,
      "byteOffset": 56760,
      "byteStride": 12,
      "target": 34962
    },
    {
      "name": "bufferView_2",
      "buffer": 0,
      "byteLength": 37840,
      "byteOffset": 113520,
      "byteStride": 8,
      "target": 34962
    },
    {
      "name": "bufferView_3",
      "buffer": 0,
      "byteLength": 22968,
      "byteOffset": 151360,
      "target": 34963
    }
  ],
  "materials": [
    {
      "name": "Texture1",
      "pbrMetallicRoughness": {
        "baseColorFactor": [
          0.5,
          0.5,
          0.5,
          1
        ],
        "metallicFactor": 0,
        "roughnessFactor": 1
      },
      "emissiveFactor": [
        0,
        0,
        0
      ],
      "alphaMode": "OPAQUE",
      "doubleSided": false
    }
  ],
  "meshes": [
    {
      "name": "mesh_all1_Texture1_0-Mesh",
      "primitives": [
        {
          "attributes": {
            "POSITION": 0,
            "NORMAL": 1,
            "TEXCOORD_0": 2
          },
          "indices": 3,
          "material": 0,
          "mode": 4
        }
      ]
    }
  ],
  "nodes": [
    {
      "name": "mesh_all1_Texture1_0",
      "mesh": 0
    }
  ],
  "scene": 0,
  "scenes": [
    {
      "nodes": [
        0
      ]
    }
  ]
}
